<svg width="200" height="200" viewBox="0 0 200 200" fill="none" xmlns="http://www.w3.org/2000/svg">
<path d="M100 5C47.5202 5 5 47.5202 5 100C5 152.48 47.5202 195 100 195C152.48 195 195 152.48 195 100C195 47.5202 152.48 5 100 5Z" fill="white"/>
<g filter="url(#filter0_d_1_2)">
<path d="M55 160V51.25C55 45.0367 60.0367 40 66.25 40H133.75C139.963 40 145 45.0367 145 51.25V160L100 133.75L55 160Z" fill="#727272"/>
</g>
<g filter="url(#filter1_i_1_2)">
<path d="M129.234 99.8695L123.851 96.761C124.394 93.8293 124.394 90.8219 123.851 87.8903L129.234 84.7817C129.853 84.4279 130.131 83.695 129.929 83.0126C128.526 78.5141 126.138 74.4452 123.017 71.0586C122.536 70.5406 121.753 70.4142 121.146 70.768L115.763 73.8766C113.501 71.9306 110.898 70.4268 108.08 69.4412V63.2368C108.08 62.5291 107.588 61.9099 106.893 61.7583C102.255 60.7221 97.5038 60.7727 93.0937 61.7583C92.3987 61.9099 91.9059 62.5291 91.9059 63.2368V69.4538C89.1006 70.4521 86.4975 71.9558 84.223 73.8892L78.8525 70.7807C78.2334 70.4268 77.4625 70.5406 76.9824 71.0713C73.8612 74.4452 71.4729 78.5141 70.0703 83.0253C69.8555 83.7076 70.1461 84.4405 70.7653 84.7944L76.1484 87.9029C75.605 90.8345 75.605 93.842 76.1484 96.7736L70.7653 99.8822C70.1461 100.236 69.8681 100.969 70.0703 101.651C71.4729 106.15 73.8612 110.219 76.9824 113.605C77.4625 114.123 78.246 114.25 78.8525 113.896L84.2356 110.787C86.4975 112.733 89.1006 114.237 91.9185 115.223V121.44C91.9185 122.147 92.4113 122.767 93.1063 122.918C97.7439 123.954 102.495 123.904 106.905 122.918C107.6 122.767 108.093 122.147 108.093 121.44V115.223C110.898 114.224 113.501 112.721 115.776 110.787L121.159 113.896C121.778 114.25 122.549 114.136 123.029 113.605C126.15 110.231 128.539 106.162 129.941 101.651C130.131 100.956 129.853 100.223 129.234 99.8695V99.8695ZM99.9931 102.435C94.4205 102.435 89.8841 97.8982 89.8841 92.3256C89.8841 86.753 94.4205 82.2165 99.9931 82.2165C105.566 82.2165 110.102 86.753 110.102 92.3256C110.102 97.8982 105.566 102.435 99.9931 102.435V102.435Z" fill="white"/>
</g>
<defs>
<filter id="filter0_d_1_2" x="51" y="40" width="98" height="128" filterUnits="userSpaceOnUse" color-interpolation-filters="sRGB">
<feFlood flood-opacity="0" result="BackgroundImageFix"/>
<feColorMatrix in="SourceAlpha" type="matrix" values="0 0 0 0 0 0 0 0 0 0 0 0 0 0 0 0 0 0 127 0" result="hardAlpha"/>
<feOffset dy="4"/>
<feGaussianBlur stdDeviation="2"/>
<feComposite in2="hardAlpha" operator="out"/>
<feColorMatrix type="matrix" values="0 0 0 0 0 0 0 0 0 0 0 0 0 0 0 0 0 0 0.25 0"/>
<feBlend mode="normal" in2="BackgroundImageFix" result="effect1_dropShadow_1_2"/>
<feBlend mode="normal" in="SourceGraphic" in2="effect1_dropShadow_1_2" result="shape"/>
</filter>
<filter id="filter1_i_1_2" x="70" y="61" width="61" height="63.6765" filterUnits="userSpaceOnUse" color-interpolation-filters="sRGB">
<feFlood flood-opacity="0" result="BackgroundImageFix"/>
<feBlend mode="normal" in="SourceGraphic" in2="BackgroundImageFix" result="shape"/>
<feColorMatrix in="SourceAlpha" type="matrix" values="0 0 0 0 0 0 0 0 0 0 0 0 0 0 0 0 0 0 127 0" result="hardAlpha"/>
<feOffset dx="1" dy="1"/>
<feGaussianBlur stdDeviation="1"/>
<feComposite in2="hardAlpha" operator="arithmetic" k2="-1" k3="1"/>
<feColorMatrix type="matrix" values="0 0 0 0 0.00381944 0 0 0 0 0.0916667 0 0 0 0 0.0705833 0 0 0 1 0"/>
<feBlend mode="normal" in2="shape" result="effect1_innerShadow_1_2"/>
</filter>
</defs>
</svg>
